<?xml version="1.0" standalone="no"?>
<!DOCTYPE svg PUBLIC "-//W3C//DTD SVG 20010904//EN"
 "http://www.w3.org/TR/2001/REC-SVG-20010904/DTD/svg10.dtd">
<svg version="1.0" xmlns="http://www.w3.org/2000/svg"
 width="833.000000pt" height="833.000000pt" viewBox="0 0 833.000000 833.000000"
 preserveAspectRatio="xMidYMid meet">
<metadata>
Created by potrace 1.14, written by Peter Selinger 2001-2017
</metadata>
<g transform="translate(0.000000,833.000000) scale(0.100000,-0.100000)"
fill="#000000" stroke="none">
<path d="M6456 7193 c-4 -10 -23 -30 -44 -45 -49 -35 -79 -58 -106 -83 -26
-24 -74 -54 -98 -62 -10 -3 -18 -9 -18 -14 0 -5 -9 -9 -20 -9 -11 0 -20 -4
-20 -10 0 -5 -9 -10 -20 -10 -11 0 -20 -4 -20 -10 0 -5 -11 -10 -25 -10 -14 0
-25 -4 -25 -10 0 -5 -9 -10 -20 -10 -11 0 -20 -4 -20 -10 0 -5 -9 -10 -19 -10
-11 0 -23 -4 -26 -10 -3 -5 -15 -10 -26 -10 -10 0 -27 -4 -37 -9 -20 -11 -139
-49 -197 -62 -51 -12 -170 -28 -305 -40 -205 -18 -230 -21 -230 -30 0 -5 -22
-9 -50 -9 -27 0 -50 -4 -50 -10 0 -5 -13 -10 -30 -10 -16 0 -30 -4 -30 -10 0
-5 -14 -10 -30 -10 -17 0 -39 -4 -50 -10 -11 -5 -29 -14 -40 -20 -11 -5 -27
-10 -35 -10 -8 0 -15 -4 -15 -10 0 -5 -9 -10 -20 -10 -11 0 -20 -4 -20 -10 0
-5 -5 -10 -10 -10 -6 0 -36 -16 -66 -35 -30 -19 -58 -35 -62 -35 -4 0 -14 -9
-22 -20 -8 -11 -20 -20 -26 -20 -15 0 -149 -132 -189 -185 -16 -22 -35 -46
-41 -53 -7 -6 -16 -21 -19 -32 -3 -11 -11 -20 -16 -20 -5 0 -9 -9 -9 -20 0
-11 -4 -20 -8 -20 -5 0 -14 -16 -22 -35 -8 -19 -17 -35 -22 -35 -4 0 -8 -11
-8 -25 0 -14 -4 -25 -10 -25 -5 0 -10 -11 -10 -25 0 -14 -4 -25 -9 -25 -5 0
-11 -15 -14 -32 -3 -18 -11 -55 -18 -83 -16 -65 -25 -2925 -9 -2925 5 0 10 14
10 30 0 17 5 30 10 30 6 0 10 16 10 35 0 19 5 35 10 35 6 0 10 14 10 30 0 17
5 30 10 30 6 0 10 14 10 30 0 17 5 30 10 30 6 0 10 14 10 30 0 17 5 30 10 30
6 0 10 7 10 15 0 18 110 229 122 233 4 2 8 10 8 19 0 8 6 20 13 28 28 30 47
56 47 65 0 11 27 42 136 153 90 91 133 128 167 146 15 8 27 18 27 23 0 4 7 8
15 8 8 0 15 5 15 10 0 6 9 10 20 10 11 0 20 3 20 8 0 8 49 32 67 32 7 0 13 5
13 10 0 6 9 10 20 10 11 0 20 5 20 10 0 6 7 10 15 10 8 0 23 4 33 10 37 20
176 61 276 82 28 6 197 14 376 19 335 8 430 14 430 30 0 5 14 9 30 9 17 0 30
5 30 10 0 6 14 10 30 10 17 0 30 5 30 10 0 6 7 10 15 10 8 0 24 5 35 10 125
63 134 69 205 138 25 23 48 42 53 42 4 0 14 9 22 21 8 12 27 35 42 53 15 17
33 42 40 56 7 14 17 28 23 32 12 9 7 255 -6 279 -5 10 -9 42 -9 71 0 29 -4 91
-9 138 -10 84 -26 235 -57 540 -9 85 -21 207 -26 270 -5 63 -14 158 -19 210
-5 52 -12 134 -15 183 -3 48 -10 87 -15 87 -5 0 -9 51 -9 115 0 70 -4 115 -10
115 -6 0 -10 39 -10 98 0 54 -4 102 -9 108 -5 5 -12 54 -15 109 -16 283 -16
285 -36 285 -10 0 -21 -8 -24 -17z"/>
<path d="M6953 6653 c-17 -16 -42 -37 -58 -48 -15 -11 -37 -29 -49 -40 -11
-11 -33 -26 -48 -34 -16 -8 -28 -18 -28 -23 0 -4 -9 -8 -20 -8 -11 0 -20 -4
-20 -10 0 -5 -9 -10 -20 -10 -29 0 -33 -34 -20 -142 12 -100 46 -432 61 -588
5 -52 13 -138 19 -190 6 -52 13 -148 16 -214 4 -74 9 -113 15 -105 5 9 9 -32
9 -103 0 -72 4 -118 10 -118 6 0 10 -36 10 -89 0 -50 5 -93 10 -96 6 -3 10
-51 10 -109 0 -56 4 -106 10 -112 5 -5 10 -58 11 -117 1 -98 -1 -109 -20 -126
-12 -10 -21 -22 -21 -26 0 -8 -138 -145 -178 -177 -11 -9 -31 -22 -44 -29 -13
-6 -25 -15 -28 -19 -17 -25 -245 -120 -287 -120 -13 0 -23 -4 -23 -10 0 -5
-20 -10 -45 -10 -25 0 -45 -4 -45 -10 0 -6 -65 -10 -175 -10 -100 0 -175 4
-175 9 0 5 -55 12 -122 15 -68 3 -145 8 -171 12 -31 4 -53 2 -60 -5 -6 -6 -48
-11 -99 -11 -52 0 -88 -4 -88 -10 0 -5 -20 -10 -45 -10 -25 0 -45 -4 -45 -10
0 -5 -18 -10 -40 -10 -22 0 -40 -4 -40 -10 0 -5 -13 -10 -30 -10 -16 0 -30 -4
-30 -10 0 -5 -9 -10 -20 -10 -11 0 -20 -4 -20 -10 0 -5 -7 -10 -15 -10 -26 0
-153 -76 -186 -112 -9 -10 -22 -18 -28 -18 -7 0 -30 -18 -51 -40 -21 -22 -41
-40 -45 -40 -6 0 -69 -64 -127 -129 -16 -17 -28 -36 -28 -41 0 -6 -4 -10 -10
-10 -5 0 -10 -5 -10 -11 0 -7 -9 -19 -19 -28 -23 -20 -151 -261 -151 -284 0
-9 -4 -17 -10 -17 -5 0 -10 -9 -10 -20 0 -11 -4 -20 -10 -20 -5 0 -10 -13 -10
-30 0 -16 -4 -30 -10 -30 -5 0 -10 -11 -10 -25 0 -14 -4 -25 -10 -25 -5 0 -10
-13 -10 -30 0 -16 -4 -30 -10 -30 -5 0 -10 -9 -10 -20 0 -11 -4 -28 -9 -38 -4
-9 -13 -32 -19 -50 -9 -29 -9 -33 4 -28 9 3 18 6 20 6 2 0 4 9 4 20 0 11 5 20
10 20 6 0 10 11 10 25 0 14 5 25 10 25 6 0 10 9 10 20 0 11 5 20 10 20 6 0 10
9 10 20 0 11 4 20 9 20 5 0 13 9 16 20 3 11 12 26 18 33 7 6 30 39 52 72 44
66 245 272 294 301 17 10 31 22 31 26 0 4 8 8 18 8 10 0 24 9 32 20 8 11 22
20 32 20 10 0 18 5 18 10 0 6 9 10 20 10 11 0 20 5 20 10 0 6 9 10 19 10 11 0
23 5 26 10 3 5 15 10 26 10 10 0 19 3 19 8 0 6 63 27 200 67 25 7 74 18 110
24 86 14 372 34 390 26 8 -3 62 -9 120 -15 130 -11 249 -31 360 -60 47 -12
105 -25 130 -29 25 -4 50 -10 57 -14 19 -12 454 -10 466 2 6 6 26 11 43 11 18
0 36 4 39 10 3 6 14 10 23 10 23 0 156 51 160 62 2 4 12 8 23 8 10 0 19 5 19
10 0 6 6 10 13 10 7 0 23 9 35 20 12 11 26 20 32 20 5 0 10 5 10 10 0 6 4 10
10 10 18 0 110 83 110 99 0 6 5 11 10 11 6 0 10 30 10 70 0 40 -4 70 -10 70
-6 0 -10 38 -10 95 0 57 -4 95 -10 95 -6 0 -10 34 -10 83 0 46 -4 87 -9 93 -5
5 -12 47 -15 94 -14 211 -18 250 -26 250 -4 0 -10 39 -13 88 -8 111 -21 233
-47 427 -16 120 -30 238 -41 345 -6 52 -15 129 -20 170 -5 41 -12 117 -15 168
-3 50 -10 92 -15 92 -5 0 -9 34 -9 75 0 43 -4 75 -10 75 -6 0 -10 40 -10 100
0 60 -4 100 -10 100 -6 0 -10 35 -10 85 0 50 -4 85 -10 85 -6 0 -10 35 -10 84
0 67 -3 85 -16 90 -21 8 -18 9 -51 -21z"/>
<path d="M3050 6160 c-8 -5 -34 -10 -57 -10 -23 0 -45 -4 -48 -10 -3 -5 -18
-10 -33 -10 -15 0 -52 -9 -82 -21 -30 -11 -59 -21 -65 -22 -21 -5 -130 -50
-139 -59 -6 -4 -18 -8 -28 -8 -10 0 -18 -4 -18 -10 0 -5 -8 -10 -18 -10 -10 0
-24 -9 -32 -20 -8 -12 -26 -20 -42 -20 -15 0 -28 -4 -28 -10 0 -5 -9 -10 -20
-10 -11 0 -20 -4 -20 -10 0 -5 -11 -10 -24 -10 -14 0 -28 -4 -31 -10 -3 -5
-17 -10 -31 -10 -13 0 -24 -4 -24 -10 0 -5 -13 -10 -30 -10 -16 0 -30 -4 -30
-9 0 -4 -15 -11 -32 -15 -36 -6 -74 -15 -183 -41 -174 -41 -384 -59 -680 -58
-126 1 -247 4 -268 8 -51 10 -66 -11 -67 -87 0 -32 -4 -58 -10 -58 -6 0 -10
-30 -10 -70 0 -40 -4 -70 -10 -70 -6 0 -10 -26 -10 -59 0 -33 -4 -63 -10 -66
-5 -3 -10 -23 -10 -42 0 -20 -5 -64 -11 -97 -17 -100 -36 -208 -55 -326 -3
-19 -12 -75 -20 -125 -9 -49 -20 -119 -25 -155 -6 -36 -15 -92 -20 -125 -5
-33 -14 -87 -19 -120 -5 -33 -14 -89 -20 -125 -6 -36 -14 -95 -16 -132 -3 -38
-10 -68 -15 -68 -5 0 -9 -27 -9 -60 0 -33 -4 -60 -10 -60 -6 0 -10 -28 -10
-63 0 -35 -4 -67 -9 -72 -5 -6 -12 -35 -15 -65 -5 -57 -16 -129 -54 -360 -54
-322 -63 -384 -65 -445 -2 -48 -1 -49 32 -56 82 -17 448 -31 541 -20 52 5 127
13 165 16 66 6 185 26 285 47 25 5 62 12 83 15 20 3 37 9 37 14 0 5 16 9 35 9
19 0 35 5 35 10 0 6 14 10 30 10 17 0 30 5 30 10 0 6 14 10 30 10 17 0 30 5
30 10 0 6 9 10 20 10 28 0 100 23 100 32 0 5 7 8 15 8 8 0 23 4 33 10 9 5 53
26 97 46 44 20 82 39 85 43 9 12 50 31 65 31 8 0 15 5 15 10 0 6 9 10 20 10
11 0 20 5 20 10 0 6 11 10 25 10 14 0 25 5 25 10 0 6 14 10 30 10 17 0 30 5
30 10 0 6 15 10 34 10 19 0 38 5 41 10 3 6 19 10 35 10 16 0 32 5 35 10 3 6
22 10 41 10 20 0 44 5 55 10 26 14 405 16 421 2 7 -5 31 -12 53 -15 88 -13
115 -20 115 -28 0 -5 11 -9 25 -9 14 0 25 -4 25 -10 0 -5 14 -10 30 -10 17 0
30 -4 30 -10 0 -5 9 -10 20 -10 11 0 20 -4 20 -10 0 -5 9 -10 20 -10 11 0 20
-4 20 -10 0 -5 9 -10 20 -10 11 0 20 -4 20 -10 0 -5 7 -10 16 -10 8 0 21 -6
29 -12 7 -7 39 -31 70 -53 32 -22 68 -50 81 -62 13 -13 28 -23 34 -23 15 0
230 -220 230 -236 0 -3 14 -19 30 -34 17 -15 30 -33 30 -40 0 -13 25 -40 37
-40 4 0 7 672 6 1492 -3 1470 -5 1548 -34 1548 -4 0 -11 9 -14 20 -4 11 -17
32 -31 45 -13 13 -24 27 -24 30 0 8 -149 155 -158 155 -4 0 -14 9 -22 20 -8
11 -21 20 -30 20 -9 0 -22 9 -30 20 -8 11 -22 20 -31 20 -10 0 -19 4 -21 8 -5
13 -148 82 -169 82 -10 0 -19 4 -19 9 0 5 -15 11 -32 14 -18 4 -58 11 -88 18
-72 15 -350 22 -370 9z"/>
<path d="M7310 5970 c0 -5 -9 -10 -20 -10 -11 0 -20 -4 -20 -10 0 -5 -11 -10
-24 -10 -52 0 -53 -19 -19 -240 18 -122 33 -246 40 -337 3 -40 9 -73 14 -73 5
0 9 -38 9 -84 0 -47 5 -88 10 -91 6 -3 10 -44 10 -91 0 -49 4 -84 10 -84 6 0
10 -32 10 -75 0 -43 4 -75 10 -75 6 0 10 -34 10 -83 0 -46 4 -87 9 -92 5 -6
12 -44 15 -85 3 -41 10 -111 16 -155 14 -104 26 -209 39 -320 5 -49 17 -139
26 -200 8 -60 18 -145 22 -187 l6 -76 -56 -36 c-31 -20 -61 -36 -67 -36 -5 0
-10 -4 -10 -10 0 -5 -9 -10 -20 -10 -11 0 -20 -4 -20 -10 0 -5 -9 -10 -20 -10
-11 0 -20 -4 -20 -10 0 -5 -11 -10 -25 -10 -14 0 -25 -4 -25 -10 0 -5 -11 -10
-25 -10 -14 0 -25 -4 -25 -10 0 -5 -7 -10 -16 -10 -9 0 -44 -9 -78 -19 -230
-73 -437 -86 -706 -44 -149 22 -160 25 -166 34 -3 5 -18 9 -35 9 -16 0 -29 5
-29 10 0 6 -13 10 -29 10 -17 0 -33 5 -36 10 -3 6 -24 10 -46 10 -21 0 -39 5
-39 10 0 6 -20 10 -45 10 -25 0 -45 5 -45 10 0 6 -20 10 -45 10 -25 0 -45 4
-45 9 0 9 -13 11 -217 31 -109 11 -143 10 -390 -16 -29 -3 -53 -10 -53 -15 0
-5 -16 -9 -35 -9 -19 0 -35 -4 -35 -10 0 -5 -13 -10 -30 -10 -16 0 -30 -4 -30
-10 0 -5 -13 -10 -30 -10 -16 0 -30 -4 -30 -10 0 -5 -11 -10 -25 -10 -14 0
-25 -4 -25 -10 0 -5 -9 -10 -20 -10 -11 0 -20 -4 -20 -10 0 -5 -9 -10 -20 -10
-11 0 -20 -4 -20 -10 0 -5 -7 -10 -16 -10 -8 0 -22 -6 -29 -12 -31 -28 -43
-37 -73 -52 -17 -9 -42 -27 -56 -41 -14 -14 -30 -25 -36 -25 -5 0 -10 -4 -10
-10 0 -5 -5 -10 -11 -10 -11 0 -59 -48 -124 -125 -22 -26 -52 -60 -67 -76 -15
-17 -30 -39 -33 -50 -4 -10 -11 -19 -16 -19 -5 0 -9 -8 -9 -18 0 -10 -9 -24
-20 -32 -11 -8 -20 -22 -20 -32 0 -10 -4 -18 -10 -18 -5 0 -10 -9 -10 -20 0
-11 -4 -20 -10 -20 -5 0 -10 -9 -10 -20 0 -11 -4 -20 -10 -20 -5 0 -10 -5 -10
-10 0 -6 -9 -30 -20 -52 -11 -23 -18 -43 -17 -45 6 -6 77 65 77 77 0 13 254
270 267 270 4 0 24 14 43 30 19 16 39 30 43 30 5 0 28 13 51 29 56 39 184 101
208 101 10 0 18 5 18 10 0 6 14 10 30 10 17 0 30 5 30 10 0 6 18 10 40 10 22
0 40 5 40 10 0 6 25 10 55 10 31 0 55 4 55 10 0 7 61 9 188 6 225 -6 332 -14
332 -27 0 -5 18 -9 40 -9 22 0 40 -4 40 -10 0 -5 18 -10 40 -10 22 0 40 -4 40
-10 0 -5 9 -10 20 -10 11 0 28 -4 38 -9 9 -5 37 -15 62 -22 37 -11 140 -54
210 -88 8 -4 36 -14 63 -22 26 -7 47 -17 47 -21 0 -4 14 -8 30 -8 17 0 30 -4
30 -10 0 -5 11 -10 25 -10 14 0 25 -4 25 -10 0 -5 14 -10 30 -10 17 0 30 -4
30 -10 0 -5 18 -10 40 -10 22 0 40 -4 40 -10 0 -5 14 -10 30 -10 17 0 30 -4
30 -10 0 -5 15 -10 34 -10 19 0 37 -4 40 -9 3 -5 23 -11 43 -14 21 -3 106 -19
188 -35 244 -50 300 -55 540 -49 121 3 247 10 280 16 33 6 66 12 73 13 10 1
12 13 7 47 -3 25 -8 73 -11 106 -3 33 -10 64 -15 69 -5 6 -9 33 -9 61 0 28 -4
55 -9 61 -5 5 -12 38 -14 74 -5 61 -13 116 -36 255 -5 33 -14 92 -20 130 -6
39 -18 115 -27 170 -31 188 -53 350 -60 433 -3 34 -10 62 -15 62 -5 0 -9 29
-9 65 0 37 -4 65 -10 65 -6 0 -10 28 -10 65 0 36 -4 65 -9 65 -5 0 -12 33 -15
73 -10 138 -17 192 -26 212 -5 11 -12 43 -15 70 -13 115 -39 297 -60 410 -9
50 -20 119 -25 155 -5 36 -14 94 -20 130 -5 36 -13 98 -16 138 -4 40 -11 75
-15 78 -5 3 -9 25 -9 49 0 45 -17 95 -32 95 -4 0 -8 -4 -8 -10z"/>
<path d="M681 5573 c-5 -10 -11 -36 -14 -58 -3 -22 -12 -69 -21 -105 -47 -206
-59 -259 -63 -295 -3 -22 -9 -44 -14 -49 -5 -6 -9 -27 -9 -48 0 -21 -4 -38
-10 -38 -5 0 -10 -24 -10 -54 0 -30 -4 -58 -10 -61 -5 -3 -10 -26 -10 -51 0
-24 -4 -44 -10 -44 -5 0 -10 -18 -10 -40 0 -22 -4 -40 -10 -40 -5 0 -10 -22
-10 -49 0 -27 -4 -51 -9 -53 -6 -1 -11 -27 -12 -55 -2 -29 -6 -53 -10 -53 -4
0 -9 -19 -12 -42 -3 -24 -10 -63 -16 -88 -5 -25 -14 -65 -20 -90 -70 -306 -78
-344 -88 -415 -3 -22 -9 -44 -14 -49 -5 -6 -9 -32 -9 -58 0 -26 -4 -48 -10
-48 -5 0 -10 -18 -10 -39 0 -22 -5 -43 -10 -46 -6 -3 -10 -28 -10 -56 0 -27
-4 -49 -10 -49 -5 0 -10 -18 -10 -40 0 -22 -4 -40 -10 -40 -5 0 -10 -22 -10
-48 0 -26 -4 -52 -9 -58 -5 -5 -11 -27 -14 -49 -3 -22 -10 -60 -16 -85 -21
-87 -42 -186 -57 -265 -15 -82 -28 -136 -45 -191 -5 -17 -9 -44 -9 -62 0 -17
-5 -34 -10 -37 -6 -3 -10 -26 -10 -50 0 -24 -4 -47 -10 -50 -5 -3 -10 -28 -10
-56 0 -27 -4 -49 -10 -49 -5 0 -10 -13 -10 -30 l0 -30 1770 0 c1567 0 1770 -2
1770 -15 0 -8 5 -15 10 -15 6 0 10 -6 10 -13 0 -15 36 -92 53 -115 14 -18 128
-131 151 -150 8 -6 22 -12 31 -12 8 0 15 -3 15 -7 0 -11 50 -33 72 -33 10 0
18 -4 18 -10 0 -5 23 -10 50 -10 28 0 50 -4 50 -10 0 -6 62 -10 165 -10 103 0
165 4 165 10 0 6 13 10 29 10 17 0 33 4 36 10 3 5 17 10 30 10 13 0 27 5 30
10 3 6 15 10 26 10 10 0 19 4 19 8 0 5 11 14 24 20 62 28 225 194 226 230 0 6
5 12 10 12 6 0 10 9 10 20 0 11 5 20 10 20 6 0 10 7 10 15 0 13 203 15 1770
15 l1770 0 0 40 c0 22 -4 40 -10 40 -5 0 -10 18 -10 40 0 22 -4 40 -10 40 -5
0 -10 22 -10 48 0 26 -4 52 -9 57 -5 6 -11 28 -15 50 -13 99 -18 121 -26 140
-5 11 -11 36 -14 55 -10 63 -28 147 -61 285 -18 73 -32 151 -41 223 -4 23 -10
42 -15 42 -5 0 -9 18 -9 40 0 22 -4 40 -10 40 -5 0 -10 23 -10 50 0 28 -4 50
-10 50 -5 0 -10 25 -10 55 0 30 -4 55 -10 55 -5 0 -10 20 -10 44 0 25 -4 48
-10 51 -5 3 -10 23 -10 44 0 20 -4 41 -9 46 -5 6 -11 28 -14 50 -6 41 -14 80
-42 200 -8 39 -25 115 -36 170 -12 55 -26 118 -31 140 -5 22 -12 58 -15 80 -3
22 -9 44 -14 50 -5 5 -9 26 -9 47 0 21 -4 38 -10 38 -5 0 -10 25 -10 55 0 30
-4 55 -10 55 -5 0 -10 23 -10 51 0 31 -4 48 -10 44 -6 -4 -10 15 -10 49 0 31
-4 56 -10 56 -5 0 -10 20 -10 44 0 25 -4 48 -10 51 -5 3 -10 21 -10 40 0 19
-4 36 -9 39 -4 3 -11 25 -15 48 -17 121 -60 323 -77 366 -8 20 -15 22 -79 22
-50 0 -72 -4 -76 -13 -3 -8 2 -47 11 -88 8 -41 15 -91 15 -111 0 -20 5 -40 10
-43 6 -3 10 -33 10 -65 0 -32 5 -62 10 -65 6 -3 10 -31 10 -61 0 -30 5 -54 10
-54 6 0 10 -28 10 -65 0 -37 4 -65 10 -65 6 0 10 -24 10 -54 0 -30 4 -58 10
-61 6 -3 10 -35 10 -71 0 -35 4 -64 9 -64 5 0 12 -28 14 -62 3 -35 10 -88 16
-118 14 -75 30 -172 41 -250 5 -36 16 -103 25 -150 30 -151 49 -268 61 -385 3
-27 10 -54 15 -60 5 -5 9 -35 9 -67 0 -32 4 -58 10 -58 6 0 10 -27 10 -60 0
-33 4 -60 10 -60 6 0 10 -27 10 -60 0 -33 4 -60 9 -60 5 0 12 -30 14 -67 3
-38 10 -95 17 -128 20 -110 31 -177 59 -365 5 -36 13 -79 16 -97 7 -29 5 -33
-21 -40 -36 -10 -545 -9 -674 2 -52 4 -99 11 -104 16 -6 5 -36 9 -68 9 -32 0
-58 4 -58 10 0 6 -22 10 -50 10 -27 0 -50 5 -50 10 0 6 -25 10 -55 10 -30 0
-55 5 -55 10 0 6 -13 10 -30 10 -16 0 -30 5 -30 10 0 6 -18 10 -39 10 -22 0
-43 5 -46 10 -3 6 -17 10 -31 10 -13 0 -32 4 -42 9 -9 5 -57 22 -107 39 -147
49 -250 88 -297 113 -10 5 -25 9 -33 9 -8 0 -15 5 -15 10 0 6 -9 10 -20 10
-11 0 -20 5 -20 10 0 6 -9 10 -20 10 -11 0 -20 5 -20 10 0 6 -9 10 -20 10 -11
0 -20 5 -20 10 0 6 -6 10 -13 10 -8 0 -27 6 -43 14 -96 48 -194 90 -224 97
-19 4 -53 13 -75 19 -22 7 -57 14 -78 17 -20 3 -40 9 -43 14 -7 13 -464 12
-464 -1 0 -5 -20 -10 -44 -10 -25 0 -48 -4 -51 -10 -3 -5 -19 -10 -34 -10 -15
0 -31 -4 -36 -8 -6 -5 -30 -15 -55 -22 -56 -17 -260 -120 -260 -131 0 -5 -8
-9 -18 -9 -10 0 -24 -9 -32 -20 -8 -11 -20 -20 -28 -20 -7 0 -28 -15 -46 -32
-18 -18 -63 -58 -99 -88 -36 -30 -69 -63 -72 -73 -4 -10 -22 -33 -41 -52 -19
-19 -34 -38 -34 -42 0 -4 -14 -24 -30 -43 -17 -19 -33 -43 -36 -52 -9 -28 -27
-21 -54 19 -34 52 -305 323 -322 323 -8 0 -20 9 -28 20 -8 11 -20 20 -27 20
-7 0 -13 5 -13 10 0 6 -7 10 -15 10 -8 0 -15 5 -15 10 0 6 -9 10 -20 10 -11 0
-20 5 -20 10 0 6 -6 10 -14 10 -8 0 -16 3 -18 8 -12 27 -291 142 -346 142 -12
0 -22 5 -22 10 0 6 -20 10 -44 10 -25 0 -48 5 -51 10 -8 14 -425 13 -425 -1 0
-5 -18 -9 -39 -9 -22 0 -43 -4 -46 -10 -3 -6 -19 -10 -35 -10 -16 0 -32 -4
-35 -10 -3 -5 -17 -10 -31 -10 -13 0 -24 -4 -24 -8 0 -4 -20 -13 -44 -21 -24
-7 -63 -23 -87 -35 -105 -55 -134 -71 -137 -78 -2 -5 -15 -8 -28 -8 -13 0 -24
-4 -24 -10 0 -5 -11 -10 -25 -10 -14 0 -25 -4 -25 -10 0 -5 -11 -10 -25 -10
-14 0 -25 -4 -25 -10 0 -5 -9 -10 -20 -10 -11 0 -20 -4 -20 -9 0 -5 -10 -11
-22 -14 -13 -3 -68 -22 -123 -42 -169 -61 -243 -85 -264 -85 -12 0 -21 -4 -21
-10 0 -5 -16 -10 -35 -10 -19 0 -35 -4 -35 -10 0 -5 -22 -10 -50 -10 -27 0
-50 -4 -50 -10 0 -5 -18 -10 -40 -10 -22 0 -40 -4 -40 -9 0 -5 -26 -12 -57
-15 -32 -2 -87 -10 -123 -16 -153 -26 -229 -32 -465 -36 -175 -4 -272 -2 -323
7 l-74 12 7 31 c8 38 23 142 31 219 4 31 10 57 15 57 5 0 9 24 9 54 0 30 4 58
10 61 5 3 10 35 10 71 0 36 4 64 10 64 6 0 10 27 10 60 0 33 4 60 10 60 6 0
10 28 10 65 0 37 4 65 10 65 6 0 10 27 10 60 0 33 4 60 10 60 6 0 10 21 10 47
0 26 4 60 10 77 5 17 28 146 51 286 23 140 46 278 51 305 21 128 30 184 34
235 3 30 10 59 15 65 5 5 9 33 9 62 0 29 5 53 10 53 6 0 10 26 10 59 0 33 5
63 10 66 6 3 10 37 10 76 0 39 4 69 10 69 6 0 10 22 10 49 0 28 5 53 10 56 6
3 10 30 10 60 0 30 4 56 9 59 5 3 11 32 14 63 4 32 11 81 16 108 20 115 32
208 27 221 -4 10 -25 14 -75 14 -57 0 -72 -3 -80 -17z"/>
</g>
</svg>
